<mxfile host="app.diagrams.net" modified="2023-09-14T11:17:44.407Z" agent="Mozilla/5.0 (Windows NT 10.0; Win64; x64) AppleWebKit/537.36 (KHTML, like Gecko) Chrome/116.0.0.0 Safari/537.36" etag="ZLSkYQaoCAcRIij9D35P" version="21.6.8" type="google">
  <diagram id="C5RBs43oDa-KdzZeNtuy" name="Page-1">
    <mxGraphModel grid="1" page="1" gridSize="10" guides="1" tooltips="1" connect="1" arrows="1" fold="1" pageScale="1" pageWidth="827" pageHeight="1169" background="#eff1e9" math="0" shadow="0">
      <root>
        <mxCell id="WIyWlLk6GJQsqaUBKTNV-0" />
        <mxCell id="WIyWlLk6GJQsqaUBKTNV-1" parent="WIyWlLk6GJQsqaUBKTNV-0" />
        <mxCell id="8jpO52qYUztN1QfROht4-0" value="&lt;font style=&quot;font-size: 20px;&quot;&gt;Start&lt;/font&gt;" style="ellipse;whiteSpace=wrap;html=1;" vertex="1" parent="WIyWlLk6GJQsqaUBKTNV-1">
          <mxGeometry x="340" y="50" width="190" height="80" as="geometry" />
        </mxCell>
        <mxCell id="8jpO52qYUztN1QfROht4-20" value="" style="edgeStyle=orthogonalEdgeStyle;rounded=0;orthogonalLoop=1;jettySize=auto;html=1;" edge="1" parent="WIyWlLk6GJQsqaUBKTNV-1" source="8jpO52qYUztN1QfROht4-4" target="8jpO52qYUztN1QfROht4-13">
          <mxGeometry relative="1" as="geometry" />
        </mxCell>
        <mxCell id="8jpO52qYUztN1QfROht4-4" value="&lt;font style=&quot;font-size: 17px;&quot;&gt;Declare&amp;nbsp; variables num1,num2 and&amp;nbsp; sum&lt;/font&gt;" style="whiteSpace=wrap;html=1;" vertex="1" parent="WIyWlLk6GJQsqaUBKTNV-1">
          <mxGeometry x="270" y="180" width="340" height="60" as="geometry" />
        </mxCell>
        <mxCell id="8jpO52qYUztN1QfROht4-12" value="" style="endArrow=classic;html=1;rounded=0;" edge="1" parent="WIyWlLk6GJQsqaUBKTNV-1">
          <mxGeometry width="50" height="50" relative="1" as="geometry">
            <mxPoint x="437" y="127" as="sourcePoint" />
            <mxPoint x="437" y="179" as="targetPoint" />
          </mxGeometry>
        </mxCell>
        <mxCell id="8jpO52qYUztN1QfROht4-13" value="&lt;font style=&quot;font-size: 17px;&quot;&gt;Read num1 and num2&lt;/font&gt;" style="shape=parallelogram;perimeter=parallelogramPerimeter;whiteSpace=wrap;html=1;fixedSize=1;" vertex="1" parent="WIyWlLk6GJQsqaUBKTNV-1">
          <mxGeometry x="270" y="296" width="340" height="60" as="geometry" />
        </mxCell>
        <mxCell id="8jpO52qYUztN1QfROht4-16" value="&lt;span style=&quot;font-size: 15px;&quot;&gt;Add num1,num2 and assign value to sum&lt;br&gt;Sum=num1+num2&lt;br&gt;&lt;/span&gt;" style="rounded=0;whiteSpace=wrap;html=1;" vertex="1" parent="WIyWlLk6GJQsqaUBKTNV-1">
          <mxGeometry x="266" y="413" width="340" height="60" as="geometry" />
        </mxCell>
        <mxCell id="8jpO52qYUztN1QfROht4-17" value="" style="endArrow=classic;html=1;rounded=0;" edge="1" parent="WIyWlLk6GJQsqaUBKTNV-1">
          <mxGeometry width="50" height="50" relative="1" as="geometry">
            <mxPoint x="442" y="360" as="sourcePoint" />
            <mxPoint x="442" y="410" as="targetPoint" />
          </mxGeometry>
        </mxCell>
        <mxCell id="8jpO52qYUztN1QfROht4-18" value="&lt;font style=&quot;font-size: 18px;&quot;&gt;Print sum&lt;/font&gt;" style="shape=parallelogram;perimeter=parallelogramPerimeter;whiteSpace=wrap;html=1;fixedSize=1;" vertex="1" parent="WIyWlLk6GJQsqaUBKTNV-1">
          <mxGeometry x="270" y="526" width="340" height="60" as="geometry" />
        </mxCell>
        <mxCell id="8jpO52qYUztN1QfROht4-22" value="" style="endArrow=classic;html=1;rounded=0;" edge="1" parent="WIyWlLk6GJQsqaUBKTNV-1">
          <mxGeometry width="50" height="50" relative="1" as="geometry">
            <mxPoint x="441" y="475" as="sourcePoint" />
            <mxPoint x="441" y="525" as="targetPoint" />
          </mxGeometry>
        </mxCell>
        <mxCell id="8jpO52qYUztN1QfROht4-23" value="&lt;font style=&quot;font-size: 20px;&quot;&gt;Stop&lt;/font&gt;" style="ellipse;whiteSpace=wrap;html=1;" vertex="1" parent="WIyWlLk6GJQsqaUBKTNV-1">
          <mxGeometry x="345" y="639" width="190" height="80" as="geometry" />
        </mxCell>
        <mxCell id="8jpO52qYUztN1QfROht4-24" value="" style="endArrow=classic;html=1;rounded=0;" edge="1" parent="WIyWlLk6GJQsqaUBKTNV-1">
          <mxGeometry width="50" height="50" relative="1" as="geometry">
            <mxPoint x="439" y="587" as="sourcePoint" />
            <mxPoint x="439" y="637" as="targetPoint" />
          </mxGeometry>
        </mxCell>
      </root>
    </mxGraphModel>
  </diagram>
</mxfile>
